<svg width="299" height="70" viewBox="0 0 299 70" fill="none" xmlns="http://www.w3.org/2000/svg">
<path fill-rule="evenodd" clip-rule="evenodd" d="M1.23917 1.07324C0.452278 1.91896 0 3.22064 0 4.91209V65.076C0 66.7675 0.452278 68.0692 1.26858 68.8855L1.48185 69.0657L35.1931 35.3544V34.597L1.45244 0.893066L1.23917 1.07324Z" fill="url(#paint0_linear_794746_178)"/>
<path fill-rule="evenodd" clip-rule="evenodd" d="M46.4081 46.6359L35.1637 35.3878V34.6009L46.4118 23.3528L46.6545 23.5035L59.9581 31.0636C63.7675 33.211 63.7675 36.7483 59.9581 38.9251L46.6545 46.4851C46.6508 46.4851 46.4081 46.6359 46.4081 46.6359Z" fill="url(#paint1_linear_794746_178)"/>
<path fill-rule="evenodd" clip-rule="evenodd" d="M46.6508 46.4849L35.1637 34.9941L1.23917 68.9186C2.47834 70.2497 4.56323 70.4005 6.89448 69.0988L46.6508 46.4849Z" fill="url(#paint2_linear_794746_178)"/>
<path fill-rule="evenodd" clip-rule="evenodd" d="M46.6508 23.5073L6.89448 0.922801C4.5669 -0.408293 2.47834 -0.228117 1.23917 1.10298L35.16 34.9944L46.6508 23.5073Z" fill="url(#paint3_linear_794746_178)"/>
<path opacity="0.2" fill-rule="evenodd" clip-rule="evenodd" d="M46.4081 46.2424L6.9239 68.6761C4.71767 69.9447 2.75045 69.8565 1.48186 68.7056L1.26859 68.9188L1.48186 69.099C2.75045 70.2462 4.71767 70.3382 6.9239 69.0696L46.6802 46.4851L46.4081 46.2424Z" fill="black"/>
<path opacity="0.12" fill-rule="evenodd" clip-rule="evenodd" d="M59.9544 38.5315L46.3787 46.2422L46.6214 46.4849L59.925 38.9249C61.8297 37.8365 62.7673 36.4172 62.7673 34.9941C62.646 36.2958 61.6789 37.535 59.9544 38.5315Z" fill="black"/>
<path opacity="0.25" fill-rule="evenodd" clip-rule="evenodd" d="M6.89448 1.31608L59.9544 31.4606C61.6789 32.4276 62.646 33.6962 62.7967 34.9979C62.7967 33.5786 61.8591 32.1555 59.9544 31.0671L6.89448 0.922636C3.08505 -1.25418 0 0.558608 0 4.91224V5.30569C0 0.952053 3.08505 -0.831319 6.89448 1.31608Z" fill="white"/>
<path fill-rule="evenodd" clip-rule="evenodd" d="M75.4284 33.0855C75.4284 23.4479 83.5289 15.6011 93.1665 15.6011C98.4945 15.6011 102.286 17.6933 105.146 20.418L101.778 23.7862C99.7337 21.8668 96.9612 20.3776 93.1628 20.3776C86.1249 20.3776 80.6241 26.0439 80.6241 33.0818C80.6241 40.1197 86.1249 45.7934 93.1591 45.7934C97.7223 45.7934 100.318 43.9622 101.984 42.2928C103.348 40.9286 104.242 38.9688 104.587 36.2808H93.1665V31.5154H109.243C109.412 32.3684 109.5 33.3907 109.5 34.4975C109.5 38.0752 108.518 42.5134 105.36 45.672C102.286 48.8711 98.3658 50.5772 93.1628 50.5772C83.5216 50.5772 75.421 42.7377 75.421 33.0928L75.4284 33.0855ZM122.495 28.0553C116.269 28.0553 111.188 32.7913 111.188 39.3107C111.188 45.797 116.266 50.5662 122.495 50.5662C128.724 50.5662 133.794 45.7897 133.794 39.307C133.794 32.7876 128.72 28.0516 122.495 28.0553ZM122.495 46.139C119.086 46.139 116.141 43.3261 116.141 39.3144C116.141 35.2623 119.082 32.4898 122.495 32.4898C125.903 32.4898 128.845 35.2586 128.845 39.3144C128.845 43.3224 125.907 46.139 122.495 46.139ZM147.149 28.0553C140.924 28.0553 135.85 32.7913 135.85 39.3107C135.85 45.797 140.924 50.5662 147.149 50.5662C153.375 50.5662 158.449 45.7897 158.449 39.307C158.449 32.7876 153.378 28.0516 147.149 28.0553ZM147.149 46.139C143.741 46.139 140.795 43.3261 140.795 39.3144C140.795 35.2623 143.737 32.4898 147.149 32.4898C150.558 32.4898 153.503 35.2586 153.503 39.3144C153.503 43.3224 150.558 46.139 147.149 46.139ZM177.408 28.7392V30.5704H177.239C176.132 29.2429 173.999 28.0516 171.315 28.0516C165.685 28.0516 160.519 33.0009 160.519 39.3585C160.519 45.6647 165.682 50.5735 171.315 50.5735C173.999 50.5735 176.132 49.3822 177.239 48.018H177.408V49.6359C177.408 53.9417 175.106 56.2472 171.396 56.2472C168.366 56.2472 166.491 54.0704 165.722 52.2429L161.413 54.0336C162.648 57.0157 165.935 60.6854 171.392 60.6854C177.187 60.6854 182.092 57.2695 182.092 48.9556V28.7355L177.408 28.7392ZM171.738 46.139C168.329 46.139 165.465 43.2783 165.465 39.3585C165.465 35.3947 168.325 32.4935 171.738 32.4935C175.106 32.4935 177.75 35.391 177.75 39.3585C177.753 43.2783 175.11 46.139 171.738 46.139ZM185.508 16.7961H190.458V49.8896H185.508V16.7961ZM204.022 46.139C201.507 46.139 199.713 44.9844 198.569 42.7304L213.623 36.4978L213.105 35.2182C212.171 32.7067 209.31 28.0553 203.467 28.0553C197.668 28.0553 192.848 32.6185 192.848 39.3144C192.848 45.6205 197.624 50.5699 204.022 50.5699C209.185 50.5699 212.171 47.4186 213.406 45.5801L209.567 43.0245C208.284 44.9035 206.534 46.1427 204.022 46.139ZM203.636 32.4052C205.596 32.4052 207.258 33.387 207.813 34.7916L197.746 38.9724C197.621 34.6225 201.117 32.4052 203.636 32.4052Z" fill="#808285"/>
<path fill-rule="evenodd" clip-rule="evenodd" d="M235.34 16.7964H223.507V49.8899H228.445V37.3548H235.343C240.819 37.3548 246.202 33.3909 246.202 27.0738C246.202 20.7676 240.822 16.8001 235.351 16.8001L235.34 16.7964ZM235.468 32.7474H228.445V21.4001H235.468C239.16 21.4001 241.264 24.463 241.264 27.0738C241.264 29.6403 239.16 32.7474 235.468 32.7474ZM253.861 49.8899V16.7964H248.923V49.8899H253.861ZM276.045 49.831V37.1452C276.045 31.2693 271.654 27.993 265.988 27.993C262.418 27.993 258.715 29.5705 257.181 33.06L261.565 34.8875C262.502 33.06 264.245 32.4606 266.08 32.4606C268.632 32.4606 271.228 33.994 271.268 36.7223V37.0643C270.375 36.5532 268.463 35.7847 266.117 35.7847C261.392 35.7847 256.582 38.3807 256.582 43.2344C256.582 47.6653 260.458 50.515 264.8 50.515C268.124 50.515 269.952 49.0258 271.099 47.2828H271.268V49.8384H276.041L276.045 49.831ZM265.4 46.1319C263.782 46.1319 261.524 45.323 261.524 43.3263C261.524 40.7708 264.337 39.7853 266.764 39.7853C268.937 39.7853 269.956 40.2523 271.279 40.8921C270.901 43.8632 268.389 46.0952 265.4 46.1319ZM293.412 28.7174L287.749 43.0616H287.58L281.704 28.7174H276.383L285.193 48.7721L280.167 59.9246H285.318L298.898 28.7174H293.412Z" fill="#808285"/>
<defs>
<linearGradient id="paint0_linear_794746_178" x1="32.166" y1="4.26539" x2="-21.8336" y2="18.6536" gradientUnits="userSpaceOnUse">
<stop stop-color="#00A0FF"/>
<stop offset="0.007" stop-color="#00A1FF"/>
<stop offset="0.26" stop-color="#00BEFF"/>
<stop offset="0.512" stop-color="#00D2FF"/>
<stop offset="0.76" stop-color="#00DFFF"/>
<stop offset="1" stop-color="#00E3FF"/>
</linearGradient>
<linearGradient id="paint1_linear_794746_178" x1="64.9152" y1="34.996" x2="-0.92584" y2="34.996" gradientUnits="userSpaceOnUse">
<stop stop-color="#FFE000"/>
<stop offset="0.409" stop-color="#FFBD00"/>
<stop offset="0.775" stop-color="#FFA500"/>
<stop offset="1" stop-color="#FF9C00"/>
</linearGradient>
<linearGradient id="paint2_linear_794746_178" x1="40.4044" y1="41.2452" x2="-2.94663" y2="114.208" gradientUnits="userSpaceOnUse">
<stop stop-color="#FF3A44"/>
<stop offset="1" stop-color="#C31162"/>
</linearGradient>
<linearGradient id="paint3_linear_794746_178" x1="-7.30046" y1="-18.9399" x2="12.0398" y2="13.6464" gradientUnits="userSpaceOnUse">
<stop stop-color="#32A071"/>
<stop offset="0.069" stop-color="#2DA771"/>
<stop offset="0.476" stop-color="#15CF74"/>
<stop offset="0.801" stop-color="#06E775"/>
<stop offset="1" stop-color="#00F076"/>
</linearGradient>
</defs>
</svg>
